<svg width="382" height="151" viewBox="0 0 382 151" fill="none" xmlns="http://www.w3.org/2000/svg">
<path d="M111 133.28H122.05C126 133.28 128.2 135.73 128.2 139.03C128.2 142.33 126 144.73 122.05 144.73H116.83V149.95H111.01V133.28H111ZM121.05 140.27C121.85 140.27 122.43 139.8 122.43 139.02C122.43 138.24 121.85 137.77 121.05 137.77H116.83V140.27H121.05Z" fill="#004F84"/>
<path d="M130.05 133.28H145.2V137.65H135.88V139.45H144.9V143.6H135.88V145.57H145.2V149.94H130.05V133.27V133.28Z" fill="#004F84"/>
<path d="M151.98 138.12H146.81V133.27H162.98V138.12H157.83V149.94H151.98V138.12Z" fill="#004F84"/>
<path d="M171.18 141.62C171.18 136.1 175.83 133 181.33 133C186.18 133 189.13 135.3 190.23 137.65L185.23 140C184.68 138.65 183.36 137.58 181.33 137.58C178.78 137.58 177.08 139.23 177.08 141.63C177.08 144.03 178.78 145.65 181.33 145.65C183.33 145.65 184.68 144.63 185.23 143.33L190.2 145.65C189.1 147.87 186.15 150.25 181.33 150.25C175.83 150.25 171.18 147.13 171.18 141.63V141.62Z" fill="#004F84"/>
<path d="M192 133.28H203C207.12 133.28 209.2 135.8 209.2 139.08C209.2 141.48 208 143.43 205.73 144.28L209.2 149.95H202.53L199.81 144.73H197.84V149.95H192.02V133.28H192ZM201.98 140.27C202.78 140.27 203.43 139.82 203.43 139C203.43 138.25 202.78 137.78 201.98 137.78H197.83V140.28H201.98V140.27Z" fill="#004F84"/>
<path d="M211.4 133.28H226.55V137.65H217.23V139.45H226.25V143.6H217.23V145.57H226.55V149.94H211.4V133.27V133.28Z" fill="#004F84"/>
<path d="M228.95 133.28H236.82L239.97 141.5L243.09 133.28H250.99V149.95H245.27V139.98L241.45 149.95H238.48L234.66 139.98V149.95H228.96V133.28H228.95Z" fill="#004F84"/>
<path d="M258.93 133.28H265.85L272.85 149.95H266.45L265.7 147.85H259.05L258.3 149.95H251.9L258.92 133.28H258.93ZM264.25 143.67L262.38 138.42L260.53 143.67H264.25Z" fill="#004F84"/>
<path d="M276.5 138.12H271.33V133.27H287.5V138.12H282.35V149.94H276.5V138.12Z" fill="#004F84"/>
<path d="M288.1 141.62C288.1 136.1 292.7 133 298.17 133C303.64 133 308.24 136.1 308.24 141.62C308.24 147.14 303.62 150.24 298.17 150.24C292.72 150.24 288.1 147.12 288.1 141.62ZM298.18 145.65C300.68 145.65 302.35 144.03 302.35 141.63C302.35 139.23 300.68 137.58 298.18 137.58C295.68 137.58 294.01 139.23 294.01 141.63C294.01 144.03 295.66 145.65 298.18 145.65Z" fill="#004F84"/>
<path d="M310.2 133.28H321.2C325.32 133.28 327.4 135.8 327.4 139.08C327.4 141.48 326.2 143.43 323.93 144.28L327.4 149.95H320.73L318.01 144.73H316.04V149.95H310.22V133.28H310.2ZM320.17 140.27C320.97 140.27 321.62 139.82 321.62 139C321.62 138.25 320.97 137.78 320.17 137.78H316.02V140.28H320.17V140.27Z" fill="#004F84"/>
<path d="M329.6 133.28H335.42V149.95H329.6V133.28Z" fill="#004F84"/>
<path d="M338.3 142.7V133.28H344.12V142.55C344.12 144.17 345.22 145.32 347.29 145.32C349.36 145.32 350.46 144.17 350.46 142.55V133.28H356.28V142.68C356.28 147.2 353.18 150.25 347.28 150.25C341.38 150.25 338.28 147.23 338.28 142.7H338.3Z" fill="#004F84"/>
<path d="M359.2 133.28H367.07L370.22 141.5L373.34 133.28H381.24V149.95H375.52V139.98L371.7 149.95H368.73L364.91 139.98V149.95H359.21V133.28H359.2Z" fill="#004F84"/>
<path d="M115 95.4502H133.88C139.88 95.4502 142.4 98.9302 142.4 102.25C142.4 105.57 140.4 107.81 137.76 108.37C140.68 108.77 142.96 111.41 142.96 114.89C142.96 118.81 140.28 122.13 134.6 122.13H115V95.4502ZM131.36 105.44C132.48 105.44 133.16 104.68 133.16 103.72C133.16 102.84 132.48 102.16 131.36 102.16H124.32V105.44H131.36ZM131.68 115.4C132.96 115.4 133.72 114.64 133.72 113.64C133.72 112.64 132.96 111.8 131.68 111.8H124.32V115.4H131.68Z" fill="#004F84"/>
<path d="M146.44 95.4502H155.76V114.37H168V122.13H146.44V95.4502Z" fill="#004F84"/>
<path d="M170.56 110.52V95.4399H179.88V110.28C179.88 112.88 181.64 114.72 184.96 114.72C188.28 114.72 190.04 112.88 190.04 110.28V95.4399H199.36V110.48C199.36 117.72 194.4 122.6 184.96 122.6C175.52 122.6 170.56 117.76 170.56 110.52Z" fill="#004F84"/>
<path d="M204 95.4502H228.24V102.45H213.32V105.33H227.76V111.97H213.32V115.13H228.24V122.13H204V95.4502Z" fill="#004F84"/>
<path d="M230.6 108.8C230.6 99.8 238.2 95 246.96 95C254.2 95 259 98.2 260.88 101.84L253 105.36C252 103.68 250.04 102.4 246.96 102.4C242.68 102.4 239.88 105 239.88 108.8C239.88 112.6 242.92 115.16 247.56 115.16C249.2 115.16 250.96 114.88 252.2 114.36V113H246.12V106.56H261.24V117.72C258.04 120.52 253.32 122.6 246.96 122.6C238.2 122.6 230.6 117.72 230.6 108.8Z" fill="#004F84"/>
<path d="M265.28 95.4502H282.88C289.48 95.4502 292.8 99.4902 292.8 104.73C292.8 108.57 290.88 111.69 287.24 113.05L292.8 122.13H282.12L277.76 113.77H274.6V122.13H265.28V95.4502ZM281.24 106.64C282.52 106.64 283.56 105.92 283.56 104.6C283.56 103.4 282.52 102.64 281.24 102.64H274.6V106.64H281.24Z" fill="#004F84"/>
<path d="M304.4 95.4502H315.48L326.68 122.13H316.44L315.24 118.77H304.6L303.4 122.13H293.16L304.4 95.4502ZM312.92 112.08L309.92 103.68L306.96 112.08H312.92Z" fill="#004F84"/>
<path d="M325.96 118.28L329.92 112.16C332.2 114.08 336.2 115.72 340.12 115.72C342.2 115.72 343.32 115.16 343.32 114.28C343.32 113.2 341.68 112.88 338.92 112.44C334.08 111.72 326.88 110.64 326.88 103.8C326.88 98.8 331.44 95.04 339.56 95.04C343.92 95.04 348.8 96.28 352.2 98.76L348.2 104.64C345.48 102.76 341.64 101.8 338.88 101.8C337.2 101.8 336.56 102.32 336.56 103.04C336.56 104.12 338.24 104.48 341.12 104.92C345.96 105.72 352.92 106.92 352.92 113.24C352.92 119.08 347.92 122.6 340.04 122.6C333.84 122.6 329 120.84 325.96 118.28Z" fill="#004F84"/>
<path d="M353.48 118.28L357.44 112.16C359.72 114.08 363.72 115.72 367.64 115.72C369.72 115.72 370.84 115.16 370.84 114.28C370.84 113.2 369.2 112.88 366.44 112.44C361.6 111.72 354.4 110.64 354.4 103.8C354.4 98.8 358.96 95.04 367.08 95.04C371.44 95.04 376.32 96.28 379.72 98.76L375.72 104.64C373 102.76 369.16 101.8 366.4 101.8C364.72 101.8 364.08 102.32 364.08 103.04C364.08 104.12 365.76 104.48 368.64 104.92C373.48 105.72 380.44 106.92 380.44 113.24C380.44 119.08 375.44 122.6 367.56 122.6C361.36 122.6 356.52 120.84 353.48 118.28Z" fill="#004F84"/>
<path d="M65.3916 9.85047C65.3916 9.85047 61.0988 12.1585 59.5108 11.6969C59.7027 12.0017 58.7342 13.9701 58.9087 14.1965C59.0832 14.423 57.3469 14.1965 57.3469 14.1965C57.3469 14.1965 56.8234 14.8323 56.8845 15.4594C56.614 16.3652 52.1641 15.2852 50.0002 16.6526C53.2373 15.7468 53.0191 17.2187 52.7661 18.2377C53.0977 21.7041 49.4941 21.3383 48.6303 21.4515C47.7665 21.5648 47.7141 21.5909 47.3215 21.7041C46.5275 21.948 48.3424 22.0612 48.6827 22.2964C49.0229 22.5315 49.5465 23.298 49.5465 23.298C49.5465 23.298 37.6626 32.8349 33.8496 39.9157C30.0367 46.9966 33.0382 43.4518 32.6368 44.2618C32.2354 45.0718 23.5799 60.1566 23.8068 61.3063C24.0336 62.456 24.4437 63.7014 24.4437 63.7014C24.4437 63.7014 25.482 65.8875 24.9672 67.2723C24.5223 68.4742 23.7544 81.2076 21.5033 83.3414C20.6831 84.0207 21.416 84.7785 21.0409 85.1268C18.4582 87.4958 10.6577 98.6614 8.92139 101.483C7.19378 104.305 0.902822 114.931 0.379303 116.08C-0.144217 117.23 -0.257646 119.251 0.902822 119.939C2.06329 120.627 9.44491 125.696 11.1725 125.809C12.9001 125.922 11.347 127.072 11.984 127.307C12.6209 127.542 19.7146 129.554 21.8523 129.032L23.99 128.509C23.99 128.509 24.4525 128.735 24.5659 129.11C24.6793 129.484 25.4908 129.432 25.4908 129.432C25.4908 129.432 25.8398 131.104 27.3405 131.731C28.8413 132.359 28.9547 133.404 30.6911 133.116C32.4274 132.829 42.0601 129.894 43.1508 128.91C44.2415 127.925 49.2062 122.168 49.8431 121.881C50.4801 121.594 50.8814 123.092 50.8814 123.553C50.8814 124.015 51.8325 121.515 51.8325 121.515C51.8325 121.515 51.3439 120.104 52.1466 120.104C52.9493 120.104 54.3716 120.914 55.2877 120.74C56.2039 120.566 56.4395 120.818 57.0415 120.505C57.6436 120.191 54.738 120.043 54.3977 118.955C54.0575 117.866 54.2232 117.979 54.8602 117.692C55.4971 117.404 57.1113 116.943 57.9751 117.169C58.8389 117.396 58.551 116.02 58.551 116.02L59.0134 115.384C59.0134 115.384 59.9907 113.772 60.5142 113.825C61.0377 113.877 61.8404 112.614 62.8787 113.363C63.9171 114.112 63.1056 111.926 63.1056 111.926C63.1056 111.926 65.2433 112.388 65.4702 113.651C65.697 114.913 65.8715 111.517 65.8715 111.517C65.8715 111.517 67.9482 111.29 68.4106 112.039C68.873 112.788 68.4717 109.853 68.4717 109.853C68.4717 109.853 69.859 109.217 70.5483 110.315C71.2376 111.412 70.7752 114.286 70.7752 114.286L71.988 113.886C71.988 113.886 71.8135 116.594 72.3894 116.882C72.9652 117.169 72.5028 115.384 73.0787 114.87C73.6545 114.356 74.6928 114.582 74.6928 114.582C74.6928 114.582 74.2304 115.793 74.2915 116.368C74.3525 116.943 75.3298 116.368 75.3298 116.368C75.3298 116.368 74.6928 117.631 74.9284 118.963C75.164 120.296 75.5654 120.522 75.5654 120.522C75.5654 120.522 75.164 118.624 76.2547 118.101C77.3453 117.579 77.9299 117.291 77.9299 117.291C77.9299 117.291 77.293 122.073 77.4064 122.36C77.5198 122.647 78.5582 123.51 78.5058 123.797C78.4534 124.085 78.0434 129.789 78.4447 130.364C78.8461 130.939 79.3085 131.287 79.3085 131.287C79.3085 131.287 78.9595 130.138 79.5354 129.441C80.1113 128.744 80.3992 130.129 80.3992 130.129L80.9751 131.052C80.9751 131.052 81.0361 138.83 80.8616 139.23C80.6871 139.631 80.5737 140.728 80.1113 141.077C79.6488 141.425 79.3609 142 79.3609 142C79.3609 142 86.6901 135.381 87.0915 134.797C87.4929 134.214 85.1283 134.275 84.9015 134.51C84.6746 134.745 89.9185 129.676 90.6165 128.117C91.3146 126.558 91.2535 125.757 91.2535 125.757C91.2535 125.757 88.95 127.368 88.4265 128.291C87.903 129.214 88.252 125.931 89.5259 124.781C90.7998 123.632 92.3529 122.308 92.3529 122.308C92.3529 122.308 92.3529 119.947 92.2918 119.66C92.2307 119.373 93.3912 116.951 94.0194 116.725C94.6476 116.499 94.0805 115.802 94.0805 115.802C94.0805 115.802 92.8153 115.575 92.4052 116.15C91.9951 116.725 93.618 113.389 93.8449 113.215C94.0718 113.041 94.6564 112.928 94.6564 112.928C94.6564 112.928 97.3089 109.583 98.8707 109.932C100.433 110.28 101.061 110.045 101.061 110.045C101.061 110.045 86.0619 95.4912 85.0585 92.4951C84.0551 89.499 82.598 85.5101 82.598 85.0485C82.598 84.5868 81.7516 85.0485 81.7516 85.0485C81.7516 85.0485 81.1321 80.9811 81.5248 79.9011C81.9174 78.8211 81.8301 76.9051 82.6765 76.3651C83.5229 75.8251 83.6014 74.8322 83.6014 74.8322C83.6014 74.8322 83.296 73.8306 82.4496 73.1425C81.6033 72.4545 80.5999 72.2193 80.373 72.1409C80.1462 72.0626 80.12 71.2526 79.6575 71.3658C79.1951 71.479 78.0608 71.4529 78.0608 71.4529C78.0608 71.4529 75.4432 73.2209 73.2183 72.9161C70.9933 72.6113 68.8294 69.92 68.8294 69.92L67.826 68.5352C67.826 68.5352 66.2118 66.4623 65.9064 66.2359C65.6011 66.0094 64.8332 63.475 65.6011 63.0134C66.3689 62.5518 69.5274 58.2493 69.9114 56.7948C70.2953 55.3403 69.1435 53.7377 69.6758 52.3442C70.208 50.9507 71.0631 48.0417 73.1397 46.7353C75.2164 45.4289 77.9125 43.5911 78.9857 43.8176C80.0589 44.044 79.1427 40.2815 79.1427 40.2815L80.2945 41.2047C80.2945 41.2047 79.7535 27.5395 79.5267 27.3043C79.2998 27.0692 82.0657 28.6108 82.2228 29.2204C82.3798 29.8301 82.9906 29.9869 82.9906 29.9869V27.5308C82.9906 27.5308 84.2209 27.5308 84.4565 27.9924C84.692 28.454 89.7615 32.5213 90.6863 34.211C91.6112 35.9006 93.0684 37.1287 93.0684 37.1287L93.9147 37.2071L94.2986 38.8183L95.145 39.1232C95.145 39.1232 102.3 39.968 105.528 41.8144C108.756 43.6608 115.222 52.771 118.101 59.4076C121.984 65.2778 128.45 67.6991 128.45 67.6991C128.45 67.6991 153.064 75.3809 156.144 77.9154C159.224 80.4498 162.112 81.5995 163.202 83.5243C164.293 85.4491 163.202 81.225 163.202 81.225L164.529 81.5298C164.529 81.5298 164.529 76.5393 164.145 76.0776C163.761 75.616 165.916 75.9993 166.3 76.5393C166.684 77.0792 165.995 50.8897 165.995 50.8897C165.995 50.8897 167.914 51.3513 167.993 52.1178C168.071 52.8842 167.53 47.1272 165.916 45.3592C164.302 43.5911 160.375 39.7502 160.375 39.7502C160.375 39.7502 161.684 39.5935 162.068 39.8286C162.452 40.0638 159.765 34.9949 158.299 33.8365C156.833 32.6781 152.837 30.762 152.837 30.762C152.837 30.762 154.146 29.7604 155.07 29.6908C155.995 29.6211 149.53 28.7675 148.605 28.9243C147.68 29.0811 147.837 27.853 147.837 27.853L144.452 28.1579L144.146 27.1563L141.145 26.9995C141.145 26.9995 136.756 23.8554 136.686 23.237C136.616 22.6186 138.606 22.697 139.382 23.3938C140.159 24.0905 135.692 19.0129 130.77 17.6368C125.849 16.252 124.305 15.9471 124.305 15.9471C124.305 15.9471 124.61 14.4839 124.924 14.4143C125.239 14.3446 117.848 14.1094 117.307 14.1878C116.766 14.2662 115.152 13.4214 114.611 13.2646C114.07 13.1078 112.84 12.1933 112.84 12.1933C112.84 12.1933 111.435 11.5314 111.2 11.5314C110.964 11.5314 111.252 10.9914 109.036 10.1814C108.477 9.92014 108.922 9.12758 109.769 9.27564C110.615 9.4237 111.217 9.86788 111.217 9.86788C111.217 9.86788 105.999 4.90346 103.766 4.59863C101.532 4.29379 97.1518 3.39671 97.1518 3.39671C97.1518 3.39671 97.7277 2.18609 97.7277 1.43707C97.7277 0.688052 97.1518 0 97.1518 0C97.1518 0 96.4625 2.0119 95.1363 2.70866C93.81 3.40542 90.983 4.14573 90.6951 4.2067C90.4071 4.26766 85.7914 3.45768 84.3518 3.51865C82.9121 3.57961 77.3104 4.21541 76.7956 4.21541C76.2808 4.21541 72.6947 3.08317 72.3283 3.33575C73.5411 3.88445 74.7103 3.95412 74.5969 4.60734C74.7975 5.29539 71.892 5.3041 71.892 5.3041C70.8537 5.07765 69.9899 4.54637 69.9899 4.54637C69.9899 4.54637 69.8154 5.53925 69.7543 6.23602C69.6932 6.93278 69.2395 7.21148 69.2395 7.21148C69.2395 7.21148 65.252 7.95179 64.6151 8.41339C63.9781 8.875 64.1265 8.62242 64.1265 8.84887C64.1265 8.84887 66.2467 9.04919 65.4004 9.8853L65.3916 9.85047Z" fill="#004F84"/>
</svg>
