<svg width="164" height="164" viewBox="0 0 164 164" fill="none" xmlns="http://www.w3.org/2000/svg">
<circle cx="82" cy="82" r="82" fill="white"/>
<circle cx="82" cy="83" r="72" fill="#004F84"/>
<path d="M69.816 42.4514C69.816 42.4514 67.0052 43.963 65.9654 43.6606C66.0911 43.8603 65.4569 45.1494 65.5712 45.2977C65.6855 45.446 64.5486 45.2977 64.5486 45.2977C64.5486 45.2977 64.2058 45.7141 64.2458 46.1248C64.0687 46.718 61.155 46.0107 59.7382 46.9063C61.8577 46.3131 61.7149 47.277 61.5492 47.9444C61.7663 50.2147 59.4069 49.9751 58.8413 50.0492C58.2757 50.1234 58.2414 50.1405 57.9843 50.2147C57.4644 50.3744 58.6527 50.4485 58.8755 50.6025C59.0984 50.7566 59.4411 51.2585 59.4411 51.2585C59.4411 51.2585 51.66 57.5045 49.1634 62.142C46.6669 66.7794 48.6321 64.4579 48.3693 64.9883C48.1065 65.5188 42.4392 75.3984 42.5878 76.1513C42.7363 76.9043 43.0048 77.7199 43.0048 77.7199C43.0048 77.7199 43.6847 79.1517 43.3476 80.0586C43.0562 80.8458 42.5535 89.1852 41.0795 90.5827C40.5425 91.0277 41.0224 91.5239 40.7767 91.7521C39.0857 93.3036 33.9783 100.616 32.8414 102.464C31.7102 104.313 27.5911 111.272 27.2484 112.025C26.9056 112.777 26.8313 114.101 27.5911 114.551C28.351 115.002 33.1842 118.322 34.3153 118.396C35.4465 118.47 34.4296 119.223 34.8466 119.377C35.2637 119.531 39.9084 120.849 41.3081 120.507L42.7077 120.164C42.7077 120.164 43.0105 120.313 43.0848 120.558C43.1591 120.803 43.6904 120.769 43.6904 120.769C43.6904 120.769 43.9189 121.864 44.9015 122.275C45.8842 122.686 45.9584 123.37 47.0953 123.182C48.2322 122.994 54.5394 121.071 55.2535 120.427C55.9676 119.782 59.2183 116.012 59.6354 115.823C60.0524 115.635 60.3152 116.616 60.3152 116.919C60.3152 117.221 60.9379 115.584 60.9379 115.584C60.9379 115.584 60.618 114.66 61.1436 114.66C61.6692 114.66 62.6004 115.19 63.2003 115.076C63.8002 114.962 63.9544 115.128 64.3486 114.922C64.7428 114.717 62.8404 114.62 62.6176 113.907C62.3948 113.194 62.5033 113.268 62.9204 113.08C63.3374 112.892 64.3943 112.589 64.9599 112.738C65.5255 112.886 65.337 111.985 65.337 111.985L65.6397 111.568C65.6397 111.568 66.2796 110.513 66.6224 110.547C66.9652 110.581 67.4908 109.754 68.1706 110.245C68.8505 110.735 68.3191 109.304 68.3191 109.304C68.3191 109.304 69.7188 109.606 69.8674 110.433C70.0159 111.26 70.1302 109.036 70.1302 109.036C70.1302 109.036 71.4899 108.887 71.7927 109.378C72.0954 109.868 71.8326 107.946 71.8326 107.946C71.8326 107.946 72.741 107.53 73.1923 108.248C73.6437 108.967 73.3409 110.849 73.3409 110.849L74.135 110.587C74.135 110.587 74.0207 112.361 74.3978 112.549C74.7748 112.738 74.4721 111.568 74.8491 111.232C75.2262 110.895 75.906 111.043 75.906 111.043C75.906 111.043 75.6032 111.836 75.6432 112.213C75.6832 112.589 76.3231 112.213 76.3231 112.213C76.3231 112.213 75.906 113.04 76.0603 113.913C76.2145 114.785 76.4773 114.934 76.4773 114.934C76.4773 114.934 76.2145 113.69 76.9286 113.348C77.6428 113.006 78.0255 112.817 78.0255 112.817C78.0255 112.817 77.6085 115.949 77.6828 116.137C77.757 116.325 78.4369 116.89 78.4026 117.078C78.3683 117.267 78.0998 121.003 78.3626 121.379C78.6254 121.756 78.9282 121.984 78.9282 121.984C78.9282 121.984 78.6997 121.231 79.0767 120.775C79.4538 120.318 79.6423 121.225 79.6423 121.225L80.0194 121.83C80.0194 121.83 80.0594 126.924 79.9451 127.186C79.8308 127.448 79.7566 128.167 79.4538 128.395C79.151 128.624 78.9625 129 78.9625 129C78.9625 129 83.7614 124.665 84.0242 124.283C84.287 123.901 82.7388 123.94 82.5902 124.094C82.4417 124.248 85.8752 120.929 86.3323 119.908C86.7893 118.887 86.7493 118.362 86.7493 118.362C86.7493 118.362 85.2411 119.417 84.8983 120.022C84.5555 120.626 84.784 118.476 85.6181 117.723C86.4522 116.97 87.4691 116.103 87.4691 116.103C87.4691 116.103 87.4691 114.557 87.4291 114.369C87.3892 114.181 88.149 112.595 88.5603 112.447C88.9717 112.298 88.6003 111.842 88.6003 111.842C88.6003 111.842 87.7719 111.694 87.5034 112.07C87.2349 112.447 88.2975 110.262 88.4461 110.148C88.5946 110.034 88.9774 109.96 88.9774 109.96C88.9774 109.96 90.7141 107.769 91.7367 107.997C92.7594 108.226 93.1707 108.072 93.1707 108.072C93.1707 108.072 83.3501 98.54 82.6931 96.5778C82.0361 94.6156 81.082 92.0031 81.082 91.7007C81.082 91.3984 80.5278 91.7007 80.5278 91.7007C80.5278 91.7007 80.1222 89.0369 80.3793 88.3296C80.6364 87.6223 80.5793 86.3674 81.1334 86.0137C81.6876 85.6601 81.739 85.0098 81.739 85.0098C81.739 85.0098 81.539 84.3538 80.9849 83.9032C80.4307 83.4526 79.7737 83.2986 79.6252 83.2472C79.4766 83.1959 79.4595 82.6654 79.1567 82.7396C78.8539 82.8137 78.1112 82.7966 78.1112 82.7966C78.1112 82.7966 76.3973 83.9545 74.9405 83.7549C73.4837 83.5553 72.0669 81.7927 72.0669 81.7927L71.4099 80.8857C71.4099 80.8857 70.353 79.5282 70.153 79.3798C69.9531 79.2315 69.4503 77.5716 69.9531 77.2693C70.4558 76.967 72.5239 74.1492 72.7753 73.1966C73.0267 72.244 72.2725 71.1944 72.621 70.2818C72.9695 69.3691 73.5294 67.4639 74.8891 66.6083C76.2488 65.7527 78.0141 64.5491 78.7168 64.6974C79.4195 64.8457 78.8196 62.3816 78.8196 62.3816L79.5738 62.9862C79.5738 62.9862 79.2196 54.0364 79.071 53.8824C78.9225 53.7284 80.7335 54.738 80.8363 55.1373C80.9392 55.5366 81.3391 55.6393 81.3391 55.6393V54.0307C81.3391 54.0307 82.1446 54.0307 82.2989 54.333C82.4531 54.6354 85.7724 57.2992 86.378 58.4058C86.9835 59.5124 87.9376 60.3167 87.9376 60.3167L88.4918 60.368L88.7431 61.4233L89.2973 61.6229C89.2973 61.6229 93.982 62.1762 96.0958 63.3855C98.2096 64.5948 102.443 70.5613 104.328 74.9078C106.871 78.7524 111.104 80.3381 111.104 80.3381C111.104 80.3381 127.22 85.3692 129.237 87.0291C131.254 88.689 133.145 89.4419 133.859 90.7025C134.573 91.9631 133.859 89.1966 133.859 89.1966L134.727 89.3963C134.727 89.3963 134.727 86.1278 134.476 85.8255C134.224 85.5232 135.635 85.7742 135.887 86.1278C136.138 86.4815 135.687 69.3292 135.687 69.3292C135.687 69.3292 136.944 69.6315 136.995 70.1335C137.047 70.6354 136.692 66.865 135.635 65.7071C134.579 64.5491 132.008 62.0336 132.008 62.0336C132.008 62.0336 132.865 61.9309 133.116 62.0849C133.367 62.239 131.608 58.9192 130.648 58.1605C129.688 57.4019 127.072 56.147 127.072 56.147C127.072 56.147 127.929 55.491 128.534 55.4453C129.14 55.3997 124.906 54.8407 124.301 54.9434C123.695 55.0461 123.798 54.2418 123.798 54.2418L121.581 54.4414L121.382 53.7854L119.416 53.6828C119.416 53.6828 116.543 51.6236 116.497 51.2186C116.451 50.8136 117.754 50.8649 118.262 51.3213C118.771 51.7776 115.846 48.4521 112.623 47.5508C109.401 46.6439 108.39 46.4442 108.39 46.4442C108.39 46.4442 108.59 45.486 108.796 45.4403C109.001 45.3947 104.163 45.2407 103.808 45.292C103.454 45.3433 102.397 44.7901 102.043 44.6874C101.689 44.5847 100.883 43.9858 100.883 43.9858C100.883 43.9858 99.9635 43.5523 99.8092 43.5523C99.655 43.5523 99.8435 43.1986 98.3924 42.6681C98.0268 42.497 98.3181 41.9779 98.8723 42.0749C99.4265 42.1719 99.8207 42.4628 99.8207 42.4628C99.8207 42.4628 96.4043 39.2114 94.9417 39.0118C93.4792 38.8121 90.6113 38.2246 90.6113 38.2246C90.6113 38.2246 90.9883 37.4317 90.9883 36.9412C90.9883 36.4506 90.6113 36 90.6113 36C90.6113 36 90.16 37.3177 89.2916 37.774C88.4232 38.2303 86.5722 38.7152 86.3837 38.7551C86.1951 38.795 83.173 38.2645 82.2303 38.3045C81.2877 38.3444 77.6199 38.7608 77.2828 38.7608C76.9458 38.7608 74.5977 38.0193 74.3578 38.1847C75.1519 38.544 75.9174 38.5897 75.8432 39.0175C75.9746 39.4681 74.0721 39.4738 74.0721 39.4738C73.3923 39.3255 72.8267 38.9776 72.8267 38.9776C72.8267 38.9776 72.7124 39.6278 72.6725 40.0842C72.6325 40.5405 72.3354 40.723 72.3354 40.723C72.3354 40.723 69.7245 41.2079 69.3075 41.5102C68.8904 41.8125 68.9876 41.6471 68.9876 41.7954C68.9876 41.7954 70.3758 41.9266 69.8217 42.4742L69.816 42.4514Z" fill="white"/>
</svg>
