<svg width="372" height="76" viewBox="0 0 372 76" fill="none" xmlns="http://www.w3.org/2000/svg">
<path d="M101 52.28H112.05C116 52.28 118.2 54.73 118.2 58.03C118.2 61.33 116 63.73 112.05 63.73H106.83V68.95H101.01V52.28H101ZM111.05 59.27C111.85 59.27 112.43 58.8 112.43 58.02C112.43 57.24 111.85 56.77 111.05 56.77H106.83V59.27H111.05Z" fill="#004F84"/>
<path d="M120.05 52.28H135.2V56.65H125.88V58.45H134.9V62.6H125.88V64.57H135.2V68.94H120.05V52.27V52.28Z" fill="#004F84"/>
<path d="M141.98 57.12H136.81V52.27H152.98V57.12H147.83V68.94H141.98V57.12Z" fill="#004F84"/>
<path d="M161.18 60.62C161.18 55.1 165.83 52 171.33 52C176.18 52 179.13 54.3 180.23 56.65L175.23 59C174.68 57.65 173.36 56.58 171.33 56.58C168.78 56.58 167.08 58.23 167.08 60.63C167.08 63.03 168.78 64.65 171.33 64.65C173.33 64.65 174.68 63.63 175.23 62.33L180.2 64.65C179.1 66.87 176.15 69.25 171.33 69.25C165.83 69.25 161.18 66.13 161.18 60.63V60.62Z" fill="#004F84"/>
<path d="M182 52.28H193C197.12 52.28 199.2 54.8 199.2 58.08C199.2 60.48 198 62.43 195.73 63.28L199.2 68.95H192.53L189.81 63.73H187.84V68.95H182.02V52.28H182ZM191.98 59.27C192.78 59.27 193.43 58.82 193.43 58C193.43 57.25 192.78 56.78 191.98 56.78H187.83V59.28H191.98V59.27Z" fill="#004F84"/>
<path d="M201.4 52.28H216.55V56.65H207.23V58.45H216.25V62.6H207.23V64.57H216.55V68.94H201.4V52.27V52.28Z" fill="#004F84"/>
<path d="M218.95 52.28H226.82L229.97 60.5L233.09 52.28H240.99V68.95H235.27V58.98L231.45 68.95H228.48L224.66 58.98V68.95H218.96V52.28H218.95Z" fill="#004F84"/>
<path d="M248.93 52.28H255.85L262.85 68.95H256.45L255.7 66.85H249.05L248.3 68.95H241.9L248.92 52.28H248.93ZM254.25 62.67L252.38 57.42L250.53 62.67H254.25Z" fill="#004F84"/>
<path d="M266.5 57.12H261.33V52.27H277.5V57.12H272.35V68.94H266.5V57.12Z" fill="#004F84"/>
<path d="M278.1 60.62C278.1 55.1 282.7 52 288.17 52C293.64 52 298.24 55.1 298.24 60.62C298.24 66.14 293.62 69.24 288.17 69.24C282.72 69.24 278.1 66.12 278.1 60.62ZM288.18 64.65C290.68 64.65 292.35 63.03 292.35 60.63C292.35 58.23 290.68 56.58 288.18 56.58C285.68 56.58 284.01 58.23 284.01 60.63C284.01 63.03 285.66 64.65 288.18 64.65Z" fill="#004F84"/>
<path d="M300.2 52.28H311.2C315.32 52.28 317.4 54.8 317.4 58.08C317.4 60.48 316.2 62.43 313.93 63.28L317.4 68.95H310.73L308.01 63.73H306.04V68.95H300.22V52.28H300.2ZM310.17 59.27C310.97 59.27 311.62 58.82 311.62 58C311.62 57.25 310.97 56.78 310.17 56.78H306.02V59.28H310.17V59.27Z" fill="#004F84"/>
<path d="M319.6 52.28H325.42V68.95H319.6V52.28Z" fill="#004F84"/>
<path d="M328.3 61.7V52.28H334.12V61.55C334.12 63.17 335.22 64.32 337.29 64.32C339.36 64.32 340.46 63.17 340.46 61.55V52.28H346.28V61.68C346.28 66.2 343.18 69.25 337.28 69.25C331.38 69.25 328.28 66.23 328.28 61.7H328.3Z" fill="#004F84"/>
<path d="M349.2 52.28H357.07L360.22 60.5L363.34 52.28H371.24V68.95H365.52V58.98L361.7 68.95H358.73L354.91 58.98V68.95H349.21V52.28H349.2Z" fill="#004F84"/>
<path d="M104 10.45H122.88C128.88 10.45 131.4 13.9299 131.4 17.2499C131.4 20.5699 129.4 22.8099 126.76 23.3699C129.68 23.7699 131.96 26.4099 131.96 29.8899C131.96 33.8099 129.28 37.1299 123.6 37.1299H104V10.45ZM120.36 20.4399C121.48 20.4399 122.16 19.6799 122.16 18.7199C122.16 17.8399 121.48 17.16 120.36 17.16H113.32V20.4399H120.36ZM120.68 30.3999C121.96 30.3999 122.72 29.6399 122.72 28.6399C122.72 27.6399 121.96 26.7999 120.68 26.7999H113.32V30.3999H120.68Z" fill="#004F84"/>
<path d="M135.44 10.45H144.76V29.3699H157V37.1299H135.44V10.45Z" fill="#004F84"/>
<path d="M159.56 25.5199V10.4399H168.88V25.2799C168.88 27.8799 170.64 29.7199 173.96 29.7199C177.28 29.7199 179.04 27.8799 179.04 25.2799V10.4399H188.36V25.4799C188.36 32.7199 183.4 37.5999 173.96 37.5999C164.52 37.5999 159.56 32.7599 159.56 25.5199Z" fill="#004F84"/>
<path d="M193 10.45H217.24V17.45H202.32V20.3299H216.76V26.9699H202.32V30.13H217.24V37.1299H193V10.45Z" fill="#004F84"/>
<path d="M219.6 23.8C219.6 14.8 227.2 10 235.96 10C243.2 10 248 13.2 249.88 16.84L242 20.36C241 18.68 239.04 17.4 235.96 17.4C231.68 17.4 228.88 20 228.88 23.8C228.88 27.6 231.92 30.16 236.56 30.16C238.2 30.16 239.96 29.88 241.2 29.36V28H235.12V21.56H250.24V32.72C247.04 35.52 242.32 37.6 235.96 37.6C227.2 37.6 219.6 32.72 219.6 23.8Z" fill="#004F84"/>
<path d="M254.28 10.45H271.88C278.48 10.45 281.8 14.49 281.8 19.7299C281.8 23.57 279.88 26.6899 276.24 28.0499L281.8 37.1299H271.12L266.76 28.77H263.6V37.1299H254.28V10.45ZM270.24 21.6399C271.52 21.6399 272.56 20.9199 272.56 19.5999C272.56 18.3999 271.52 17.6399 270.24 17.6399H263.6V21.6399H270.24Z" fill="#004F84"/>
<path d="M293.4 10.45H304.48L315.68 37.1299H305.44L304.24 33.7699H293.6L292.4 37.1299H282.16L293.4 10.45ZM301.92 27.0799L298.92 18.6799L295.96 27.0799H301.92Z" fill="#004F84"/>
<path d="M314.96 33.28L318.92 27.16C321.2 29.08 325.2 30.72 329.12 30.72C331.2 30.72 332.32 30.16 332.32 29.28C332.32 28.2 330.68 27.88 327.92 27.44C323.08 26.72 315.88 25.64 315.88 18.8C315.88 13.8 320.44 10.04 328.56 10.04C332.92 10.04 337.8 11.28 341.2 13.76L337.2 19.64C334.48 17.76 330.64 16.8 327.88 16.8C326.2 16.8 325.56 17.32 325.56 18.04C325.56 19.12 327.24 19.48 330.12 19.92C334.96 20.72 341.92 21.92 341.92 28.24C341.92 34.08 336.92 37.6 329.04 37.6C322.84 37.6 318 35.84 314.96 33.28Z" fill="#004F84"/>
<path d="M342.48 33.28L346.44 27.16C348.72 29.08 352.72 30.72 356.64 30.72C358.72 30.72 359.84 30.16 359.84 29.28C359.84 28.2 358.2 27.88 355.44 27.44C350.6 26.72 343.4 25.64 343.4 18.8C343.4 13.8 347.96 10.04 356.08 10.04C360.44 10.04 365.32 11.28 368.72 13.76L364.72 19.64C362 17.76 358.16 16.8 355.4 16.8C353.72 16.8 353.08 17.32 353.08 18.04C353.08 19.12 354.76 19.48 357.64 19.92C362.48 20.72 369.44 21.92 369.44 28.24C369.44 34.08 364.44 37.6 356.56 37.6C350.36 37.6 345.52 35.84 342.48 33.28Z" fill="#004F84"/>
<path d="M35.0312 5.27208C35.0312 5.27208 32.7315 6.50736 31.8808 6.2603C31.9836 6.42345 31.4648 7.47694 31.5583 7.59813C31.6517 7.71933 30.7216 7.59813 30.7216 7.59813C30.7216 7.59813 30.4411 7.93842 30.4738 8.27404C30.3289 8.75883 27.945 8.18081 26.7858 8.91266C28.52 8.42787 28.4031 9.21565 28.2676 9.76104C28.4452 11.6163 26.5147 11.4205 26.052 11.4811C25.5892 11.5417 25.5612 11.5557 25.3508 11.6163C24.9254 11.7468 25.8977 11.8074 26.08 11.9333C26.2623 12.0591 26.5427 12.4693 26.5427 12.4693C26.5427 12.4693 20.1764 17.5736 18.1337 21.3633C16.0911 25.1531 17.699 23.2559 17.484 23.6894C17.269 24.1229 12.6321 32.1965 12.7536 32.8118C12.8752 33.4271 13.0949 34.0937 13.0949 34.0937C13.0949 34.0937 13.6511 35.2637 13.3753 36.0049C13.1369 36.6482 12.7256 43.4632 11.5196 44.6052C11.0802 44.9688 11.4729 45.3744 11.2719 45.5608C9.8883 46.8288 5.7095 52.8047 4.77931 54.315C3.85381 55.8253 0.483654 61.5123 0.203198 62.1276C-0.0772589 62.7429 -0.138025 63.8243 0.483654 64.1926C1.10533 64.5608 5.05977 67.2738 5.98528 67.3344C6.91079 67.395 6.07876 68.0103 6.41999 68.1362C6.76121 68.262 10.5614 69.3388 11.7066 69.0591L12.8518 68.7794C12.8518 68.7794 13.0995 68.9006 13.1603 69.1011C13.2211 69.3015 13.6558 69.2736 13.6558 69.2736C13.6558 69.2736 13.8427 70.1685 14.6467 70.5042C15.4507 70.8398 15.5115 71.3992 16.4416 71.2453C17.3718 71.0915 22.5322 69.5206 23.1165 68.9939C23.7008 68.4671 26.3605 65.3859 26.7017 65.2321C27.0429 65.0783 27.2579 65.88 27.2579 66.1271C27.2579 66.3741 27.7674 65.0363 27.7674 65.0363C27.7674 65.0363 27.5057 64.2812 27.9357 64.2812C28.3657 64.2812 29.1276 64.7147 29.6184 64.6214C30.1092 64.5282 30.2354 64.6634 30.558 64.4956C30.8805 64.3278 29.3239 64.2485 29.1416 63.6658C28.9594 63.0832 29.0482 63.1438 29.3894 62.9899C29.7306 62.8361 30.5954 62.5891 31.0581 62.7103C31.5209 62.8314 31.3666 62.0949 31.3666 62.0949L31.6143 61.7547C31.6143 61.7547 32.1379 60.8923 32.4183 60.9203C32.6988 60.9482 33.1288 60.2723 33.685 60.6732C34.2413 61.0741 33.8066 59.9041 33.8066 59.9041C33.8066 59.9041 34.9518 60.1511 35.0733 60.827C35.1948 61.5029 35.2883 59.685 35.2883 59.685C35.2883 59.685 36.4008 59.5638 36.6485 59.9647C36.8963 60.3656 36.6813 58.7947 36.6813 58.7947C36.6813 58.7947 37.4245 58.4544 37.7937 59.0417C38.163 59.629 37.9153 61.1673 37.9153 61.1673L38.565 60.9529C38.565 60.9529 38.4715 62.4026 38.78 62.5564C39.0885 62.7103 38.8408 61.7547 39.1493 61.4796C39.4578 61.2046 40.014 61.3258 40.014 61.3258C40.014 61.3258 39.7663 61.9737 39.799 62.2814C39.8317 62.5891 40.3552 62.2814 40.3552 62.2814C40.3552 62.2814 40.014 62.9573 40.1402 63.6705C40.2664 64.3837 40.4814 64.5049 40.4814 64.5049C40.4814 64.5049 40.2664 63.4887 40.8507 63.209C41.435 62.9293 41.7482 62.7755 41.7482 62.7755C41.7482 62.7755 41.407 65.3346 41.4677 65.4885C41.5285 65.6423 42.0847 66.1038 42.0567 66.2576C42.0286 66.4114 41.8089 69.4647 42.024 69.7723C42.239 70.08 42.4867 70.2664 42.4867 70.2664C42.4867 70.2664 42.2997 69.6511 42.6082 69.2782C42.9167 68.9053 43.071 69.6465 43.071 69.6465L43.3795 70.1406C43.3795 70.1406 43.4122 74.3032 43.3187 74.5177C43.2252 74.7321 43.1645 75.3194 42.9167 75.5059C42.669 75.6923 42.5148 76 42.5148 76C42.5148 76 46.4411 72.4573 46.6562 72.145C46.8712 71.8327 45.6045 71.8653 45.4829 71.9912C45.3614 72.117 48.1706 69.4041 48.5446 68.5697C48.9185 67.7353 48.8858 67.3064 48.8858 67.3064C48.8858 67.3064 47.6518 68.1688 47.3713 68.6629C47.0909 69.157 47.2778 67.3997 47.9603 66.7843C48.6427 66.169 49.4748 65.4605 49.4748 65.4605C49.4748 65.4605 49.4748 64.1973 49.442 64.0434C49.4093 63.8896 50.031 62.5937 50.3675 62.4725C50.7041 62.3513 50.4003 61.9784 50.4003 61.9784C50.4003 61.9784 49.7225 61.8572 49.5028 62.1649C49.2831 62.4725 50.1525 60.6872 50.2741 60.594C50.3956 60.5007 50.7088 60.4401 50.7088 60.4401C50.7088 60.4401 52.1297 58.6501 52.9664 58.8366C53.8031 59.0231 54.1397 58.8972 54.1397 58.8972C54.1397 58.8972 46.1046 51.1079 45.5671 49.5044C45.0295 47.9009 44.2489 45.7659 44.2489 45.5189C44.2489 45.2718 43.7955 45.5189 43.7955 45.5189C43.7955 45.5189 43.4636 43.342 43.674 42.764C43.8843 42.186 43.8376 41.1604 44.291 40.8714C44.7444 40.5824 44.7865 40.051 44.7865 40.051C44.7865 40.051 44.6229 39.515 44.1694 39.1467C43.716 38.7785 43.1785 38.6526 43.057 38.6106C42.9354 38.5687 42.9214 38.1352 42.6737 38.1958C42.4259 38.2564 41.8183 38.2424 41.8183 38.2424C41.8183 38.2424 40.416 39.1887 39.2241 39.0255C38.0321 38.8624 36.8729 37.422 36.8729 37.422L36.3354 36.6808C36.3354 36.6808 35.4706 35.5714 35.307 35.4502C35.1434 35.329 34.7321 33.9725 35.1434 33.7255C35.5548 33.4784 37.2468 31.1757 37.4525 30.3972C37.6582 29.6187 37.0412 28.761 37.3263 28.0152C37.6114 27.2694 38.0695 25.7125 39.182 25.0132C40.2945 24.314 41.7388 23.3305 42.3138 23.4517C42.8887 23.5729 42.3979 21.5591 42.3979 21.5591L43.0149 22.0532C43.0149 22.0532 42.7251 14.7394 42.6036 14.6136C42.482 14.4877 43.9638 15.3128 44.0479 15.6391C44.1321 15.9654 44.4593 16.0493 44.4593 16.0493V14.7348C44.4593 14.7348 45.1183 14.7348 45.2445 14.9818C45.3707 15.2289 48.0865 17.4058 48.582 18.3101C49.0774 19.2144 49.858 19.8717 49.858 19.8717L50.3115 19.9136L50.5171 20.776L50.9705 20.9392C50.9705 20.9392 54.8034 21.3913 56.5329 22.3795C58.2624 23.3678 61.726 28.2436 63.2686 31.7956C65.3486 34.9374 68.8122 36.2333 68.8122 36.2333C68.8122 36.2333 81.9984 40.3447 83.6484 41.7012C85.2984 43.0577 86.8456 43.673 87.4299 44.7031C88.0142 45.7333 87.4299 43.4725 87.4299 43.4725L88.1404 43.6357C88.1404 43.6357 88.1404 40.9647 87.9347 40.7176C87.729 40.4706 88.8836 40.6757 89.0893 40.9647C89.2949 41.2537 88.9257 27.2367 88.9257 27.2367C88.9257 27.2367 89.954 27.4838 89.9961 27.894C90.0381 28.3042 89.7483 25.223 88.8836 24.2767C88.0188 23.3305 85.9154 21.2748 85.9154 21.2748C85.9154 21.2748 86.6166 21.1909 86.8222 21.3167C87.0279 21.4426 85.5882 18.7296 84.8029 18.1097C84.0177 17.4897 81.8768 16.4642 81.8768 16.4642C81.8768 16.4642 82.578 15.9281 83.0735 15.8908C83.5689 15.8535 80.1053 15.3967 79.6098 15.4806C79.1143 15.5645 79.1985 14.9073 79.1985 14.9073L77.3849 15.0704L77.2213 14.5343L75.6133 14.4504C75.6133 14.4504 73.2621 12.7677 73.2248 12.4367C73.1874 12.1057 74.2531 12.1477 74.6691 12.5206C75.0851 12.8935 72.6919 10.1759 70.0556 9.4394C67.4193 8.69823 66.592 8.53508 66.592 8.53508C66.592 8.53508 66.7556 7.75196 66.9238 7.71467C67.0921 7.67738 63.133 7.55152 62.8432 7.59347C62.5534 7.63543 61.6886 7.18327 61.3988 7.09936C61.109 7.01546 60.45 6.52601 60.45 6.52601C60.45 6.52601 59.6974 6.17174 59.5712 6.17174C59.445 6.17174 59.5992 5.88273 58.412 5.44921C58.1128 5.30937 58.3512 4.88518 58.8046 4.96443C59.258 5.04367 59.5805 5.2814 59.5805 5.2814C59.5805 5.2814 56.7853 2.62439 55.5887 2.46124C54.3921 2.29809 52.0456 1.81796 52.0456 1.81796C52.0456 1.81796 52.3541 1.17002 52.3541 0.769136C52.3541 0.368253 52.0456 0 52.0456 0C52.0456 0 51.6763 1.07679 50.9658 1.44971C50.2554 1.82262 48.7409 2.21884 48.5866 2.25147C48.4324 2.2841 45.9597 1.85059 45.1884 1.88322C44.4172 1.91585 41.4163 2.25613 41.1405 2.25613C40.8647 2.25613 38.9436 1.65015 38.7473 1.78533C39.397 2.079 40.0234 2.11629 39.9626 2.4659C40.0701 2.83415 38.5136 2.83881 38.5136 2.83881C37.9573 2.71761 37.4946 2.43327 37.4946 2.43327C37.4946 2.43327 37.4011 2.96467 37.3684 3.33759C37.3357 3.7105 37.0926 3.85967 37.0926 3.85967C37.0926 3.85967 34.9564 4.25589 34.6152 4.50294C34.274 4.75 34.3535 4.61482 34.3535 4.73602C34.3535 4.73602 35.4893 4.84323 35.0359 5.29073L35.0312 5.27208Z" fill="#004F84"/>
</svg>
